  0
SECTION
  2
HEADER
  9
$ACADVER
  1
AC1009
  9
$FILLMODE
 70
1
  9
$EXTMIN
 10
-0.523418
 20
-0.580098
 30
0.000000
  9
$EXTMAX
 10
2.732127
 20
2.544000
 30
0.000000
  0
ENDSEC
  0
SECTION
  2
TABLES
  0
TABLE
  2
LTYPE
 70
1
  0
LTYPE
  2
CONTINUOUS
 70
64
  3
Solid line
 72
65
 73
0
 40
0
  0
ENDTAB
  0
TABLE
  2
LAYER
 70
255
  0
LAYER
  2
20
 70
64
 62
31
  6
CONTINUOUS
  0
ENDTAB
  0
ENDSEC
  0
SECTION
  2
BLOCKS
  0
BLOCK
  8
0
  2
RECT
 70
64
 10
0.000000
 20
0.000000
 30
0.000000
  3
RECT
  0
SOLID
  8
0
 10
-0.500000
 20
-0.500000
 30
0.000000
 11
0.500000
 21
-0.500000
 31
0.000000
 12
-0.500000
 22
0.500000
 32
0.000000
 13
0.500000
 23
0.500000
 33
0.000000
  0
ENDBLK
  8
0
  0
BLOCK
  8
0
  2
PIE
 70
64
 10
0.000000
 20
0.000000
 30
0.000000
  3
PIE
  0
POLYLINE
  8
0
 66
1
 10
0.000000
 20
0.000000
 30
0.000000
 40
0.500000
 41
0.500000
 70
0
  0
VERTEX
  8
0
 10
0.000000
 20
-0.250000
 30
0.000000
 42
1.000000
  0
VERTEX
  8
0
 10
0.000000
 20
0.250000
 30
0.000000
 42
1.000000
  0
VERTEX
  8
0
 10
0.000000
 20
-0.250000
 30
0.000000
  0
SEQEND
  8
0
  0
ENDBLK
  8
0
  0
BLOCK
  8
0
  2
OCTAGONP
 70
64
 10
0.000000
 20
0.000000
 30
0.000000
  3
OCTAGONP
  0
POLYLINE
  8
0
 66
1
 10
0.000000
 20
0.000000
 30
0.000000
 40
0.500000
 41
0.500000
 70
0
  0
VERTEX
  8
0
 10
-0.250000
 20
-0.103553
 30
0.000000
  0
VERTEX
  8
0
 10
-0.250000
 20
0.103553
 30
0.000000
  0
VERTEX
  8
0
 10
-0.103553
 20
0.250000
 30
0.000000
  0
VERTEX
  8
0
 10
0.103553
 20
0.250000
 30
0.000000
  0
VERTEX
  8
0
 10
0.250000
 20
0.103553
 30
0.000000
  0
VERTEX
  8
0
 10
0.250000
 20
-0.103553
 30
0.000000
  0
VERTEX
  8
0
 10
0.103553
 20
-0.250000
 30
0.000000
  0
VERTEX
  8
0
 10
-0.103553
 20
-0.250000
 30
0.000000
  0
VERTEX
  8
0
 10
-0.250000
 20
-0.103553
 30
0.000000
  0
VERTEX
  8
0
 10
-0.250000
 20
0.103553
 30
0.000000
  0
SEQEND
  8
0
  0
ENDBLK
  8
0
  0
BLOCK
  8
0
  2
SQUAREP
 70
64
 10
0.000000
 20
0.000000
 30
0.000000
  3
SQUAREP
  0
SOLID
  8
0
 10
-0.500000
 20
-0.500000
 30
0.000000
 11
0.500000
 21
-0.500000
 31
0.000000
 12
-0.500000
 22
0.500000
 32
0.000000
 13
0.500000
 23
0.500000
 33
0.000000
  0
ENDBLK
  8
0
  0
BLOCK
  8
0
  2
ROUNDP
 70
64
 10
0.000000
 20
0.000000
 30
0.000000
  3
ROUNDP
  0
POLYLINE
  8
0
 66
1
 10
0.000000
 20
0.000000
 30
0.000000
 40
0.500000
 41
0.500000
 70
0
  0
VERTEX
  8
0
 10
0.000000
 20
-0.250000
 30
0.000000
 42
1.000000
  0
VERTEX
  8
0
 10
0.000000
 20
0.250000
 30
0.000000
 42
1.000000
  0
VERTEX
  8
0
 10
0.000000
 20
-0.250000
 30
0.000000
  0
SEQEND
  8
0
  0
ENDBLK
  8
0
  0
BLOCK
  8
0
  2
ANNULUSP
 70
64
 10
0.000000
 20
0.000000
 30
0.000000
  3
ANNULUSP
  0
POLYLINE
  8
0
 66
1
 10
0.000000
 20
0.000000
 30
0.000000
 40
0.500000
 41
0.500000
 70
0
  0
VERTEX
  8
0
 10
0.000000
 20
-0.250000
 30
0.000000
 42
1.000000
  0
VERTEX
  8
0
 10
0.000000
 20
0.250000
 30
0.000000
 42
1.000000
  0
VERTEX
  8
0
 10
0.000000
 20
-0.250000
 30
0.000000
  0
SEQEND
  8
0
  0
ENDBLK
  8
0
  0
BLOCK
  8
0
  2
THERMALP
 70
64
 10
0.000000
 20
0.000000
 30
0.000000
  3
THERMALP
  0
POLYLINE
  8
0
 66
1
 10
0.000000
 20
0.000000
 30
0.000000
 40
0.100000
 41
0.100000
 70
0
  0
VERTEX
  8
0
 10
-0.237868
 20
0.450000
 30
0.000000
  0
VERTEX
  8
0
 10
0.237868
 20
0.450000
 30
0.000000
  0
SEQEND
  8
0
  0
POLYLINE
  8
0
 66
1
 10
0.000000
 20
0.000000
 30
0.000000
 40
0.050000
 41
0.050000
 70
0
  0
VERTEX
  8
0
 10
0.237868
 20
0.425000
 30
0.000000
 42
1.000000
  0
VERTEX
  8
0
 10
0.237868
 20
0.475000
 30
0.000000
  0
SEQEND
  8
0
  0
POLYLINE
  8
0
 66
1
 10
0.000000
 20
0.000000
 30
0.000000
 40
0.050000
 41
0.050000
 70
0
  0
VERTEX
  8
0
 10
-0.237868
 20
0.475000
 30
0.000000
 42
1.000000
  0
VERTEX
  8
0
 10
-0.237868
 20
0.425000
 30
0.000000
  0
SEQEND
  8
0
  0
POLYLINE
  8
0
 66
1
 10
0.000000
 20
0.000000
 30
0.000000
 40
0.100000
 41
0.100000
 70
0
  0
VERTEX
  8
0
 10
0.450000
 20
0.237868
 30
0.000000
  0
VERTEX
  8
0
 10
0.450000
 20
-0.237868
 30
0.000000
  0
SEQEND
  8
0
  0
POLYLINE
  8
0
 66
1
 10
0.000000
 20
0.000000
 30
0.000000
 40
0.050000
 41
0.050000
 70
0
  0
VERTEX
  8
0
 10
0.425000
 20
-0.237868
 30
0.000000
 42
1.000000
  0
VERTEX
  8
0
 10
0.475000
 20
-0.237868
 30
0.000000
  0
SEQEND
  8
0
  0
POLYLINE
  8
0
 66
1
 10
0.000000
 20
0.000000
 30
0.000000
 40
0.050000
 41
0.050000
 70
0
  0
VERTEX
  8
0
 10
0.475000
 20
0.237868
 30
0.000000
 42
1.000000
  0
VERTEX
  8
0
 10
0.425000
 20
0.237868
 30
0.000000
  0
SEQEND
  8
0
  0
POLYLINE
  8
0
 66
1
 10
0.000000
 20
0.000000
 30
0.000000
 40
0.100000
 41
0.100000
 70
0
  0
VERTEX
  8
0
 10
0.237868
 20
-0.450000
 30
0.000000
  0
VERTEX
  8
0
 10
-0.237868
 20
-0.450000
 30
0.000000
  0
SEQEND
  8
0
  0
POLYLINE
  8
0
 66
1
 10
0.000000
 20
0.000000
 30
0.000000
 40
0.050000
 41
0.050000
 70
0
  0
VERTEX
  8
0
 10
-0.237868
 20
-0.425000
 30
0.000000
 42
1.000000
  0
VERTEX
  8
0
 10
-0.237868
 20
-0.475000
 30
0.000000
  0
SEQEND
  8
0
  0
POLYLINE
  8
0
 66
1
 10
0.000000
 20
0.000000
 30
0.000000
 40
0.050000
 41
0.050000
 70
0
  0
VERTEX
  8
0
 10
0.237868
 20
-0.475000
 30
0.000000
 42
1.000000
  0
VERTEX
  8
0
 10
0.237868
 20
-0.425000
 30
0.000000
  0
SEQEND
  8
0
  0
POLYLINE
  8
0
 66
1
 10
0.000000
 20
0.000000
 30
0.000000
 40
0.100000
 41
0.100000
 70
0
  0
VERTEX
  8
0
 10
-0.450000
 20
-0.237868
 30
0.000000
  0
VERTEX
  8
0
 10
-0.450000
 20
0.237868
 30
0.000000
  0
SEQEND
  8
0
  0
POLYLINE
  8
0
 66
1
 10
0.000000
 20
0.000000
 30
0.000000
 40
0.050000
 41
0.050000
 70
0
  0
VERTEX
  8
0
 10
-0.425000
 20
0.237868
 30
0.000000
 42
1.000000
  0
VERTEX
  8
0
 10
-0.475000
 20
0.237868
 30
0.000000
  0
SEQEND
  8
0
  0
POLYLINE
  8
0
 66
1
 10
0.000000
 20
0.000000
 30
0.000000
 40
0.050000
 41
0.050000
 70
0
  0
VERTEX
  8
0
 10
-0.475000
 20
-0.237868
 30
0.000000
 42
1.000000
  0
VERTEX
  8
0
 10
-0.425000
 20
-0.237868
 30
0.000000
  0
SEQEND
  8
0
  0
ENDBLK
  8
0
  0
BLOCK
  8
0
  2
OCTAGONV
 70
64
 10
0.000000
 20
0.000000
 30
0.000000
  3
OCTAGONV
  0
POLYLINE
  8
0
 66
1
 10
0.000000
 20
0.000000
 30
0.000000
 40
0.500000
 41
0.500000
 70
0
  0
VERTEX
  8
0
 10
-0.250000
 20
-0.103553
 30
0.000000
  0
VERTEX
  8
0
 10
-0.250000
 20
0.103553
 30
0.000000
  0
VERTEX
  8
0
 10
-0.103553
 20
0.250000
 30
0.000000
  0
VERTEX
  8
0
 10
0.103553
 20
0.250000
 30
0.000000
  0
VERTEX
  8
0
 10
0.250000
 20
0.103553
 30
0.000000
  0
VERTEX
  8
0
 10
0.250000
 20
-0.103553
 30
0.000000
  0
VERTEX
  8
0
 10
0.103553
 20
-0.250000
 30
0.000000
  0
VERTEX
  8
0
 10
-0.103553
 20
-0.250000
 30
0.000000
  0
VERTEX
  8
0
 10
-0.250000
 20
-0.103553
 30
0.000000
  0
VERTEX
  8
0
 10
-0.250000
 20
0.103553
 30
0.000000
  0
SEQEND
  8
0
  0
ENDBLK
  8
0
  0
BLOCK
  8
0
  2
SQUAREV
 70
64
 10
0.000000
 20
0.000000
 30
0.000000
  3
SQUAREV
  0
SOLID
  8
0
 10
-0.500000
 20
-0.500000
 30
0.000000
 11
0.500000
 21
-0.500000
 31
0.000000
 12
-0.500000
 22
0.500000
 32
0.000000
 13
0.500000
 23
0.500000
 33
0.000000
  0
ENDBLK
  8
0
  0
BLOCK
  8
0
  2
ROUNDV
 70
64
 10
0.000000
 20
0.000000
 30
0.000000
  3
ROUNDV
  0
POLYLINE
  8
0
 66
1
 10
0.000000
 20
0.000000
 30
0.000000
 40
0.500000
 41
0.500000
 70
0
  0
VERTEX
  8
0
 10
0.000000
 20
-0.250000
 30
0.000000
 42
1.000000
  0
VERTEX
  8
0
 10
0.000000
 20
0.250000
 30
0.000000
 42
1.000000
  0
VERTEX
  8
0
 10
0.000000
 20
-0.250000
 30
0.000000
  0
SEQEND
  8
0
  0
ENDBLK
  8
0
  0
BLOCK
  8
0
  2
ANNULUSV
 70
64
 10
0.000000
 20
0.000000
 30
0.000000
  3
ANNULUSV
  0
POLYLINE
  8
0
 66
1
 10
0.000000
 20
0.000000
 30
0.000000
 40
0.500000
 41
0.500000
 70
0
  0
VERTEX
  8
0
 10
0.000000
 20
-0.250000
 30
0.000000
 42
1.000000
  0
VERTEX
  8
0
 10
0.000000
 20
0.250000
 30
0.000000
 42
1.000000
  0
VERTEX
  8
0
 10
0.000000
 20
-0.250000
 30
0.000000
  0
SEQEND
  8
0
  0
ENDBLK
  8
0
  0
BLOCK
  8
0
  2
THERMALV
 70
64
 10
0.000000
 20
0.000000
 30
0.000000
  3
THERMALV
  0
POLYLINE
  8
0
 66
1
 10
0.000000
 20
0.000000
 30
0.000000
 40
0.100000
 41
0.100000
 70
0
  0
VERTEX
  8
0
 10
-0.237868
 20
0.450000
 30
0.000000
  0
VERTEX
  8
0
 10
0.237868
 20
0.450000
 30
0.000000
  0
SEQEND
  8
0
  0
POLYLINE
  8
0
 66
1
 10
0.000000
 20
0.000000
 30
0.000000
 40
0.050000
 41
0.050000
 70
0
  0
VERTEX
  8
0
 10
0.237868
 20
0.425000
 30
0.000000
 42
1.000000
  0
VERTEX
  8
0
 10
0.237868
 20
0.475000
 30
0.000000
  0
SEQEND
  8
0
  0
POLYLINE
  8
0
 66
1
 10
0.000000
 20
0.000000
 30
0.000000
 40
0.050000
 41
0.050000
 70
0
  0
VERTEX
  8
0
 10
-0.237868
 20
0.475000
 30
0.000000
 42
1.000000
  0
VERTEX
  8
0
 10
-0.237868
 20
0.425000
 30
0.000000
  0
SEQEND
  8
0
  0
POLYLINE
  8
0
 66
1
 10
0.000000
 20
0.000000
 30
0.000000
 40
0.100000
 41
0.100000
 70
0
  0
VERTEX
  8
0
 10
0.450000
 20
0.237868
 30
0.000000
  0
VERTEX
  8
0
 10
0.450000
 20
-0.237868
 30
0.000000
  0
SEQEND
  8
0
  0
POLYLINE
  8
0
 66
1
 10
0.000000
 20
0.000000
 30
0.000000
 40
0.050000
 41
0.050000
 70
0
  0
VERTEX
  8
0
 10
0.425000
 20
-0.237868
 30
0.000000
 42
1.000000
  0
VERTEX
  8
0
 10
0.475000
 20
-0.237868
 30
0.000000
  0
SEQEND
  8
0
  0
POLYLINE
  8
0
 66
1
 10
0.000000
 20
0.000000
 30
0.000000
 40
0.050000
 41
0.050000
 70
0
  0
VERTEX
  8
0
 10
0.475000
 20
0.237868
 30
0.000000
 42
1.000000
  0
VERTEX
  8
0
 10
0.425000
 20
0.237868
 30
0.000000
  0
SEQEND
  8
0
  0
POLYLINE
  8
0
 66
1
 10
0.000000
 20
0.000000
 30
0.000000
 40
0.100000
 41
0.100000
 70
0
  0
VERTEX
  8
0
 10
0.237868
 20
-0.450000
 30
0.000000
  0
VERTEX
  8
0
 10
-0.237868
 20
-0.450000
 30
0.000000
  0
SEQEND
  8
0
  0
POLYLINE
  8
0
 66
1
 10
0.000000
 20
0.000000
 30
0.000000
 40
0.050000
 41
0.050000
 70
0
  0
VERTEX
  8
0
 10
-0.237868
 20
-0.425000
 30
0.000000
 42
1.000000
  0
VERTEX
  8
0
 10
-0.237868
 20
-0.475000
 30
0.000000
  0
SEQEND
  8
0
  0
POLYLINE
  8
0
 66
1
 10
0.000000
 20
0.000000
 30
0.000000
 40
0.050000
 41
0.050000
 70
0
  0
VERTEX
  8
0
 10
0.237868
 20
-0.475000
 30
0.000000
 42
1.000000
  0
VERTEX
  8
0
 10
0.237868
 20
-0.425000
 30
0.000000
  0
SEQEND
  8
0
  0
POLYLINE
  8
0
 66
1
 10
0.000000
 20
0.000000
 30
0.000000
 40
0.100000
 41
0.100000
 70
0
  0
VERTEX
  8
0
 10
-0.450000
 20
-0.237868
 30
0.000000
  0
VERTEX
  8
0
 10
-0.450000
 20
0.237868
 30
0.000000
  0
SEQEND
  8
0
  0
POLYLINE
  8
0
 66
1
 10
0.000000
 20
0.000000
 30
0.000000
 40
0.050000
 41
0.050000
 70
0
  0
VERTEX
  8
0
 10
-0.425000
 20
0.237868
 30
0.000000
 42
1.000000
  0
VERTEX
  8
0
 10
-0.475000
 20
0.237868
 30
0.000000
  0
SEQEND
  8
0
  0
POLYLINE
  8
0
 66
1
 10
0.000000
 20
0.000000
 30
0.000000
 40
0.050000
 41
0.050000
 70
0
  0
VERTEX
  8
0
 10
-0.475000
 20
-0.237868
 30
0.000000
 42
1.000000
  0
VERTEX
  8
0
 10
-0.425000
 20
-0.237868
 30
0.000000
  0
SEQEND
  8
0
  0
ENDBLK
  8
0
  0
ENDSEC
  0
SECTION
  2
ENTITIES
  0
LINE
  8
20
 10
0.000000
 20
2.060630
 30
0.000000
 11
0.000000
 21
0.039370
 31
0.000000
  0
ARC
  8
20
 10
0.039370
 20
0.039370
 30
0.000000
 40
0.039370
 50
180.000000
 51
270.000000
  0
LINE
  8
20
 10
0.039370
 20
0.000000
 30
0.000000
 11
2.160630
 21
0.000000
 31
0.000000
  0
ARC
  8
20
 10
2.160630
 20
0.039370
 30
0.000000
 40
0.039370
 50
270.000000
 51
0.000000
  0
LINE
  8
20
 10
2.200000
 20
0.039370
 30
0.000000
 11
2.200000
 21
0.100000
 31
0.000000
  0
LINE
  8
20
 10
2.300000
 20
0.200000
 30
0.000000
 11
2.300000
 21
1.490000
 31
0.000000
  0
LINE
  8
20
 10
2.140000
 20
2.100000
 30
0.000000
 11
0.039370
 21
2.100000
 31
0.000000
  0
ARC
  8
20
 10
0.039370
 20
2.060630
 30
0.000000
 40
0.039370
 50
90.000000
 51
180.000000
  0
LINE
  8
20
 10
2.200000
 20
0.100000
 30
0.000000
 11
2.300000
 21
0.200000
 31
0.000000
  0
LINE
  8
20
 10
2.140000
 20
2.100000
 30
0.000000
 11
2.200000
 21
2.040000
 31
0.000000
  0
LINE
  8
20
 10
2.300000
 20
1.490000
 30
0.000000
 11
2.200000
 21
1.590000
 31
0.000000
  0
LINE
  8
20
 10
2.200000
 20
1.590000
 30
0.000000
 11
2.200000
 21
2.040000
 31
0.000000
  0
CIRCLE
  8
20
 10
0.150000
 20
0.100000
 30
0.000000
 40
0.062992
  0
CIRCLE
  8
20
 10
0.200000
 20
2.000000
 30
0.000000
 40
0.062992
  0
CIRCLE
  8
20
 10
2.200000
 20
1.400000
 30
0.000000
 40
0.062992
  0
CIRCLE
  8
20
 10
2.200000
 20
0.300000
 30
0.000000
 40
0.062992
  0
CIRCLE
  8
20
 10
0.166614
 20
1.278740
 30
0.000000
 40
0.009843
  0
CIRCLE
  8
20
 10
0.166614
 20
1.121260
 30
0.000000
 40
0.009843
  0
ENDSEC
  0
EOF
